<?xml version="1.0" encoding="UTF-8" standalone="yes"?>
<!DOCTYPE svg PUBLIC "-//W3C//DTD SVG 1.0//EN" "http://www.w3.org/TR/2001/REC-SVG-20010904/DTD/svg10.dtd">
<svg height="300" width="1420" xmlns="http://www.w3.org/2000/svg" xmlns:svg="http://www.w3.org/2000/svg" xmlns:xlink="http://www.w3.org/1999/xlink">
	<text fill="" font-family="Arial" font-size="12" stroke="" text-anchor="middle" x="710" y="7.5"></text>
	<text fill="rgb(27,158,119)" font-family="Arial" font-size="14" font-style="italic" stroke="rgb(27,158,119)" text-anchor="middle" x="60" y="65">IRGSP</text>
	<text fill="rgb(217,95,2)" font-family="Arial" font-size="14" font-style="italic" stroke="rgb(217,95,2)" text-anchor="middle" x="60" y="265">9311</text>
	<path d="M120.000115995969 267 L 246.793422086745 267  Q 246.599468899194 221 , 246.577918545022 175 T 246.3624150033 83  L 120.002937851747  83 Q 120.001668016647 129 , 120.001526923858 175 T 120.000115995969 267  Z" style="fill: rgb(166,206,227); fill-opacity: 0.92; stroke: rgb(166,206,227); stroke-opacity: 0.92; stroke-width: 1" />
	<path d="M630.906113128581 267 L 630.823793689143 267  Q 426.599524327255 221 , 403.9079388426 175 T 176.992083996057 83  L 176.909432822956  83 Q 381.207938960487 129 , 403.907772975769 175 T 630.906113128581 267  Z" style="fill: rgb(166,206,227); fill-opacity: 0.92; stroke: rgb(166,206,227); stroke-opacity: 0.92; stroke-width: 1" />
	<path d="M256.798714402839 267 L 361.418376017589 267  Q 361.369754970996 221 , 361.364352632485 175 T 361.310329247382 83  L 256.365919399022  83 Q 256.560677150739 129 , 256.58231690093 175 T 256.798714402839 267  Z" style="fill: rgb(31,120,180); fill-opacity: 0.92; stroke: rgb(31,120,180); stroke-opacity: 0.92; stroke-width: 1" />
	<path d="M371.418738504992 267 L 479.09449662179 267  Q 478.429552143944 221 , 478.355669424184 175 T 477.616842226577 83  L 371.317259189922  83 Q 371.362924881704 129 , 371.367998847457 175 T 371.418738504992 267  Z" style="fill: rgb(178,223,138); fill-opacity: 0.92; stroke: rgb(178,223,138); stroke-opacity: 0.92; stroke-width: 1" />
	<path d="M372.35276414803 267 L 372.276032814408 267  Q 372.267556486033 221 , 372.266614671769 175 T 372.25719652913 83  L 372.179898320494  83 Q 372.257687942885 129 , 372.266331234262 175 T 372.35276414803 267  Z" style="fill: rgb(178,223,138); fill-opacity: 0.92; stroke: rgb(178,223,138); stroke-opacity: 0.92; stroke-width: 1" />
	<path d="M419.717148857388 267 L 419.650512072985 267  Q 419.433589892645 221 , 419.409487428163 175 T 419.16846278334 83  L 419.101706965168  83 Q 419.378655816667 129 , 419.409427911278 175 T 419.717148857388 267  Z" style="fill: rgb(178,223,138); fill-opacity: 0.92; stroke: rgb(178,223,138); stroke-opacity: 0.92; stroke-width: 1" />
	<path d="M532.751113674374 267 L 590.653326199049 267  Q 590.959169912854 221 , 590.993152547721 175 T 591.332978896392 83  L 533.755684177417  83 Q 533.303627451047 129 , 533.253398925895 175 T 532.751113674374 267  Z" style="fill: rgb(51,160,44); fill-opacity: 0.92; stroke: rgb(51,160,44); stroke-opacity: 0.92; stroke-width: 1" />
	<path d="M495.308583385126 267 L 532.557815091411 267  Q 531.84496556465 221 , 531.765760061676 175 T 530.973705031942 83  L 494.571452792177  83 Q 494.903161559004 129 , 494.940018088651 175 T 495.308583385126 267  Z" style="fill: rgb(51,160,44); fill-opacity: 0.92; stroke: rgb(51,160,44); stroke-opacity: 0.92; stroke-width: 1" />
	<path d="M489.095082401435 267 L 494.510467319293 267  Q 494.1884143304 221 , 494.152630664967 175 T 493.794794010642 83  L 487.663655112762  83 Q 488.307797392665 129 , 488.379368757099 175 T 489.095082401435 267  Z" style="fill: rgb(51,160,44); fill-opacity: 0.92; stroke: rgb(51,160,44); stroke-opacity: 0.92; stroke-width: 1" />
	<path d="M530.260918007531 267 L 529.95062589004 267  Q 529.370169178338 221 , 529.305673988149 175 T 528.660722086258 83  L 528.348033616982  83 Q 529.208831592729 129 , 529.304475812257 175 T 530.260918007531 267  Z" style="fill: rgb(51,160,44); fill-opacity: 0.92; stroke: rgb(51,160,44); stroke-opacity: 0.92; stroke-width: 1" />
	<path d="M531.303280985895 267 L 530.907238848178 267  Q 531.270997517615 221 , 531.311415147552 175 T 531.715591446926 83  L 531.169460576967  83 Q 531.229679760985 129 , 531.236370781431 175 T 531.303280985895 267  Z" style="fill: rgb(51,160,44); fill-opacity: 0.92; stroke: rgb(51,160,44); stroke-opacity: 0.92; stroke-width: 1" />
	<path d="M532.242758439485 267 L 531.64029567479 267  Q 531.973098908785 221 , 532.010077045895 175 T 532.379858417001 83  L 531.738428425714  83 Q 531.965376931911 129 , 531.9905934326 175 T 532.242758439485 267  Z" style="fill: rgb(51,160,44); fill-opacity: 0.92; stroke: rgb(51,160,44); stroke-opacity: 0.92; stroke-width: 1" />
	<path d="M494.829879619862 267 L 494.508335893359 267  Q 494.433167834464 221 , 494.42481582792 175 T 494.341295762482 83  L 493.796178246952  83 Q 494.261343864761 129 , 494.313028933407 175 T 494.829879619862 267  Z" style="fill: rgb(51,160,44); fill-opacity: 0.92; stroke: rgb(51,160,44); stroke-opacity: 0.92; stroke-width: 1" />
	<path d="M535.68665266574 267 L 535.559193394892 267  Q 536.052549148336 221 , 536.107366454274 175 T 536.655539513657 83  L 536.527185179683  83 Q 536.148945548409 129 , 536.106918922712 175 T 535.68665266574 267  Z" style="fill: rgb(51,160,44); fill-opacity: 0.92; stroke: rgb(51,160,44); stroke-opacity: 0.92; stroke-width: 1" />
	<path d="M531.890989063309 267 L 532.945682413199 267  Q 533.213146489558 221 , 533.242864720264 175 T 533.540047027329 83  L 532.028881504134  83 Q 531.966829905763 129 , 531.959935283722 175 T 531.890989063309 267  Z" style="fill: rgb(51,160,44); fill-opacity: 0.92; stroke: rgb(51,160,44); stroke-opacity: 0.92; stroke-width: 1" />
	<path d="M590.615088127804 267 L 590.525194151579 267  Q 590.876007869836 221 , 590.914987171865 175 T 591.30478019215 83  L 591.221956719593  83 Q 590.948865853288 129 , 590.918522423699 175 T 590.615088127804 267  Z" style="fill: rgb(51,160,44); fill-opacity: 0.92; stroke: rgb(51,160,44); stroke-opacity: 0.92; stroke-width: 1" />
	<path d="M951.785609199523 267 L 952.161723229733 267  Q 762.73489623555 221 , 741.687471013974 175 T 531.213218798214 83  L 530.82554502148  83 Q 720.257573901599 129 , 741.305577110501 175 T 951.785609199523 267  Z" style="fill: rgb(51,160,44); fill-opacity: 0.92; stroke: rgb(51,160,44); stroke-opacity: 0.92; stroke-width: 1" />
	<path d="M600.653604589375 267 L 687.675503218316 267  Q 688.103369401117 221 , 688.150910088095 175 T 688.626316957874 83  L 601.334678528317  83 Q 601.028195255793 129 , 600.994141558846 175 T 600.653604589375 267  Z" style="fill: rgb(251,154,153); fill-opacity: 0.92; stroke: rgb(251,154,153); stroke-opacity: 0.92; stroke-width: 1" />
	<path d="M752.593620838921 267 L 790.435110564511 267  Q 790.273582980805 221 , 790.255635471505 175 T 790.076160378499 83  L 750.989549776752  83 Q 751.711381754728 129 , 751.791585307836 175 T 752.593620838921 267  Z" style="fill: rgb(227,26,28); fill-opacity: 0.92; stroke: rgb(227,26,28); stroke-opacity: 0.92; stroke-width: 1" />
	<path d="M697.827083850959 267 L 735.1167691515 267  Q 735.962109493283 221 , 736.056036197925 175 T 736.995303244351 83  L 698.825395838175  83 Q 698.376155443927 129 , 698.326239844567 175 T 697.827083850959 267  Z" style="fill: rgb(227,26,28); fill-opacity: 0.92; stroke: rgb(227,26,28); stroke-opacity: 0.92; stroke-width: 1" />
	<path d="M751.75155390036 267 L 735.277258274576 267  Q 742.044176490101 221 , 742.796056291826 175 T 750.314854309075 83  L 737.136261721604  83 Q 743.713143202045 129 , 744.443907810982 175 T 751.75155390036 267  Z" style="fill: rgb(227,26,28); fill-opacity: 0.92; stroke: rgb(227,26,28); stroke-opacity: 0.92; stroke-width: 1" />
	<path d="M740.445157092463 267 L 742.127785921883 267  Q 743.936663793957 221 , 744.137650224187 175 T 746.147514526491 83  L 744.817727764871  83 Q 742.850070962287 129 , 742.631442428667 175 T 740.445157092463 267  Z" style="fill: rgb(227,26,28); fill-opacity: 0.92; stroke: rgb(227,26,28); stroke-opacity: 0.92; stroke-width: 1" />
	<path d="M752.431847060485 267 L 751.858890770453 267  Q 751.454347402923 221 , 751.409398139864 175 T 750.959905509274 83  L 750.392815432568  83 Q 751.310379665131 129 , 751.412331246526 175 T 752.431847060485 267  Z" style="fill: rgb(227,26,28); fill-opacity: 0.92; stroke: rgb(227,26,28); stroke-opacity: 0.92; stroke-width: 1" />
	<path d="M788.742680075694 267 L 788.329006550659 267  Q 788.349171877172 221 , 788.351412469007 175 T 788.373818387355 83  L 787.958007233303  83 Q 788.311110012379 129 , 788.350343654499 175 T 788.742680075694 267  Z" style="fill: rgb(227,26,28); fill-opacity: 0.92; stroke: rgb(227,26,28); stroke-opacity: 0.92; stroke-width: 1" />
	<path d="M788.49358453165 267 L 788.329006550659 267  Q 788.460565665935 221 , 788.47518334541 175 T 788.62136014016 83  L 788.44973820034  83 Q 788.46946904943 129 , 788.471661365995 175 T 788.49358453165 267  Z" style="fill: rgb(227,26,28); fill-opacity: 0.92; stroke: rgb(227,26,28); stroke-opacity: 0.92; stroke-width: 1" />
	<path d="M548.389101561468 267 L 548.268297559352 267  Q 631.516689935352 221 , 640.766511310464 175 T 733.264725061575 83  L 733.139618134304  83 Q 650.001885676528 129 , 640.764359847886 175 T 548.389101561468 267  Z" style="fill: rgb(227,26,28); fill-opacity: 0.92; stroke: rgb(227,26,28); stroke-opacity: 0.92; stroke-width: 1" />
	<path d="M752.433024419572 267 L 752.574887489896 267  Q 745.62748486779 221 , 744.855551243112 175 T 737.136214996328 83  L 737.027388907514  83 Q 743.95992488794 129 , 744.730206663543 175 T 752.433024419572 267  Z" style="fill: rgb(227,26,28); fill-opacity: 0.92; stroke: rgb(227,26,28); stroke-opacity: 0.92; stroke-width: 1" />
	<path d="M740.310224781299 267 L 740.445101994378 267  Q 743.083147771681 221 , 743.376263969159 175 T 746.30742594394 83  L 746.147631339681  83 Q 743.520798388409 129 , 743.22892806049 175 T 740.310224781299 267  Z" style="fill: rgb(227,26,28); fill-opacity: 0.92; stroke: rgb(227,26,28); stroke-opacity: 0.92; stroke-width: 1" />
	<path d="M515.77227038139 267 L 515.686813250986 267  Q 629.102319935222 221 , 641.704042900138 175 T 767.721272549289 83  L 767.635233793657  83 Q 654.296900258137 129 , 641.703752087524 175 T 515.77227038139 267  Z" style="fill: rgb(227,26,28); fill-opacity: 0.92; stroke: rgb(227,26,28); stroke-opacity: 0.92; stroke-width: 1" />
	<path d="M1254.59526098468 267 L 1254.45507695601 267  Q 1035.42486497299 221 , 1011.08817475265 175 T 767.721272549289 83  L 767.639620128969  83 Q 986.769658514038 129 , 1011.11744055682 175 T 1254.59526098468 267  Z" style="fill: rgb(227,26,28); fill-opacity: 0.92; stroke: rgb(227,26,28); stroke-opacity: 0.92; stroke-width: 1" />
	<path d="M800.435499151008 267 L 885.951633804556 267  Q 886.335023785118 221 , 886.377622671847 175 T 886.803611539138 83  L 800.082120771556  83 Q 800.241141042309 129 , 800.258809961282 175 T 800.435499151008 267  Z" style="fill: rgb(253,191,111); fill-opacity: 0.92; stroke: rgb(253,191,111); stroke-opacity: 0.92; stroke-width: 1" />
	<path d="M896.220263069812 267 L 978.348564349016 267  Q 979.031438940984 221 , 979.107313895647 175 T 979.866063442278 83  L 896.808958662944  83 Q 896.544045646035 129 , 896.514610866378 175 T 896.220263069812 267  Z" style="fill: rgb(255,127,0); fill-opacity: 0.92; stroke: rgb(255,127,0); stroke-opacity: 0.92; stroke-width: 1" />
	<path d="M917.070927118801 267 L 916.180655155344 267  Q 917.211107171172 221 , 917.325601839598 175 T 918.470548523853 83  L 917.581226340188  83 Q 917.351591690564 129 , 917.326076729495 175 T 917.070927118801 267  Z" style="fill: rgb(255,127,0); fill-opacity: 0.92; stroke: rgb(255,127,0); stroke-opacity: 0.92; stroke-width: 1" />
	<path d="M515.834977802336 267 L 515.712654253023 267  Q 699.405994315086 221 , 719.816365433093 175 T 923.920076613164 83  L 923.798485762933  83 Q 740.214907180664 129 , 719.816731782634 175 T 515.834977802336 267  Z" style="fill: rgb(255,127,0); fill-opacity: 0.92; stroke: rgb(255,127,0); stroke-opacity: 0.92; stroke-width: 1" />
	<path d="M988.431518866385 267 L 1054.96820744698 267  Q 1055.89471599624 221 , 1055.99766139061 175 T 1057.02711533424 83  L 989.87196542874  83 Q 989.22376447568 129 , 989.151742147562 175 T 988.431518866385 267  Z" style="fill: rgb(202,178,214); fill-opacity: 0.92; stroke: rgb(202,178,214); stroke-opacity: 0.92; stroke-width: 1" />
	<path d="M1064.96831474325 267 L 1133.07850024555 267  Q 1133.87285961775 221 , 1133.96112177021 175 T 1134.84374329488 83  L 1067.07669377271  83 Q 1066.12792320945 129 , 1066.02250425798 175 T 1064.96831474325 267  Z" style="fill: rgb(106,61,154); fill-opacity: 0.92; stroke: rgb(106,61,154); stroke-opacity: 0.92; stroke-width: 1" />
	<path d="M922.812376706062 267 L 922.653027243382 267  Q 1001.9940869865 221 , 1010.80976029129 175 T 1098.9664933392 83  L 1098.80584599865  83 Q 1019.60878481699 129 , 1010.80911135236 175 T 922.812376706062 267  Z" style="fill: rgb(106,61,154); fill-opacity: 0.92; stroke: rgb(106,61,154); stroke-opacity: 0.92; stroke-width: 1" />
	<path d="M1072.35271093887 267 L 1072.21412765457 267  Q 1073.2032694224 221 , 1073.31317406327 175 T 1074.41222047196 83  L 1074.27219650023  83 Q 1073.40842799762 129 , 1073.31245371955 175 T 1072.35271093887 267  Z" style="fill: rgb(106,61,154); fill-opacity: 0.92; stroke: rgb(106,61,154); stroke-opacity: 0.92; stroke-width: 1" />
	<path d="M1074.49696312709 267 L 1074.40221761945 267  Q 1075.43747119726 221 , 1075.55249937257 175 T 1076.70278112569 83  L 1076.60735058952  83 Q 1075.65767623143 129 , 1075.5521568583 175 T 1074.49696312709 267  Z" style="fill: rgb(106,61,154); fill-opacity: 0.92; stroke: rgb(106,61,154); stroke-opacity: 0.92; stroke-width: 1" />
	<path d="M768.167210663818 267 L 768.081785432306 267  Q 916.934634206473 221 , 933.473839625825 175 T 1098.86589381934 83  L 1098.77984338239  83 Q 950.004158659034 129 , 933.473527023106 175 T 768.167210663818 267  Z" style="fill: rgb(106,61,154); fill-opacity: 0.92; stroke: rgb(106,61,154); stroke-opacity: 0.92; stroke-width: 1" />
	<path d="M515.905891938102 267 L 515.626434449121 267  Q 790.697646354985 221 , 821.261114344526 175 T 1126.89579423993 83  L 1126.79956061308  83 Q 851.897409709338 129 , 821.35272627559 175 T 515.905891938102 267  Z" style="fill: rgb(106,61,154); fill-opacity: 0.92; stroke: rgb(106,61,154); stroke-opacity: 0.92; stroke-width: 1" />
	<path d="M1125.18233853354 267 L 1125.11856104978 267  Q 1113.26768616627 221 , 1111.95092229032 175 T 1098.78328353086 83  L 1098.71906839959  83 Q 1110.62753995987 129 , 1111.95070346657 175 T 1125.18233853354 267  Z" style="fill: rgb(106,61,154); fill-opacity: 0.92; stroke: rgb(106,61,154); stroke-opacity: 0.92; stroke-width: 1" />
	<path d="M1143.21110103773 267 L 1222.90967824873 267  Q 1223.9180147423 221 , 1224.03005213047 175 T 1225.15042601221 83  L 1144.85809379536  83 Q 1144.11694705443 129 , 1144.03459741655 175 T 1143.21110103773 267  Z" style="fill: rgb(255,255,153); fill-opacity: 0.92; stroke: rgb(255,255,153); stroke-opacity: 0.92; stroke-width: 1" />
	<path d="M1224.83230853821 267 L 1228.25672994114 267  Q 1228.85893635515 221 , 1228.92584817893 175 T 1229.59496641673 83  L 1225.36848411568  83 Q 1225.12720510582 129 , 1225.10039632694 175 T 1224.83230853821 267  Z" style="fill: rgb(255,255,153); fill-opacity: 0.92; stroke: rgb(255,255,153); stroke-opacity: 0.92; stroke-width: 1" />
	<path d="M1190.745994022 267 L 1190.6048182278 267  Q 1191.75252402249 221 , 1191.88004688857 175 T 1193.15527554934 83  L 1192.99564156321  83 Q 1191.98330016967 129 , 1191.87081779261 175 T 1190.745994022 267  Z" style="fill: rgb(255,255,153); fill-opacity: 0.92; stroke: rgb(255,255,153); stroke-opacity: 0.92; stroke-width: 1" />
	<path d="M1200.41004160078 267 L 1200.30575832458 267  Q 1201.43864498478 221 , 1201.56452128036 175 T 1202.82328423613 83  L 1202.7201265074  83 Q 1201.68058829942 129 , 1201.56508405409 175 T 1200.41004160078 267  Z" style="fill: rgb(255,255,153); fill-opacity: 0.92; stroke: rgb(255,255,153); stroke-opacity: 0.92; stroke-width: 1" />
	<path d="M1177.73134197519 267 L 1177.6021746637 267  Q 1178.7353962951 221 , 1178.8613098097 175 T 1180.1204449557 83  L 1180.00625130077  83 Q 1178.98254210426 129 , 1178.86879663798 175 T 1177.73134197519 267  Z" style="fill: rgb(255,255,153); fill-opacity: 0.92; stroke: rgb(255,255,153); stroke-opacity: 0.92; stroke-width: 1" />
	<path d="M1225.14301824119 267 L 1225.57453774609 267  Q 1225.83934608153 221 , 1225.86876922992 175 T 1226.16300071375 83  L 1225.7447861283  83 Q 1225.4739905791 129 , 1225.44390218474 175 T 1225.14301824119 267  Z" style="fill: rgb(255,255,153); fill-opacity: 0.92; stroke: rgb(255,255,153); stroke-opacity: 0.92; stroke-width: 1" />
	<path d="M1200.31370114857 267 L 1200.25191589558 267  Q 1201.36260147186 221 , 1201.48601098034 175 T 1202.72010606509 83  L 1202.65778330751  83 Q 1201.60294633599 129 , 1201.48574222804 175 T 1200.31370114857 267  Z" style="fill: rgb(255,255,153); fill-opacity: 0.92; stroke: rgb(255,255,153); stroke-opacity: 0.92; stroke-width: 1" />
	<path d="M1238.3220124726 267 L 1296.55843258371 267  Q 1298.05231905261 221 , 1298.21830643804 175 T 1299.87818029237 83  L 1239.71969954179  83 Q 1239.09074036066 129 , 1239.0208560072 175 T 1238.3220124726 267  Z" style="fill: rgb(177,89,40); fill-opacity: 0.92; stroke: rgb(177,89,40); stroke-opacity: 0.92; stroke-width: 1" />
	<path d="M1299.28824402402 267 L 1319.97275834663 267  Q 1319.98368717247 221 , 1319.98490148645 175 T 1319.99704462627 83  L 1299.32552540571  83 Q 1299.30874878395 129 , 1299.30688471486 175 T 1299.28824402402 267  Z" style="fill: rgb(177,89,40); fill-opacity: 0.92; stroke: rgb(177,89,40); stroke-opacity: 0.92; stroke-width: 1" />
	<path d="M1299.21492007199 267 L 1299.14188320999 267  Q 1299.47979026734 221 , 1299.51733549593 175 T 1299.89278778187 83  L 1299.83178793367  83 Q 1299.55419739591 129 , 1299.52335400283 175 T 1299.21492007199 267  Z" style="fill: rgb(177,89,40); fill-opacity: 0.92; stroke: rgb(177,89,40); stroke-opacity: 0.92; stroke-width: 1" />
	<path d="M126.666666666667 65 Q 120 65 , 120 71.6666666666667 L  120 78.3333333333333  Q 120 85 , 126.666666666667 85   L 239.698697869699 85  Q 246.365364536366 85 , 246.365364536366 78.3333333333333  L 246.365364536366 71.6666666666667 Q 246.365364536366 65 ,239.698697869699 65  Z" style="fill: #4f9cf7; stroke: #4f9cf7; stroke-width: 1" />
	<path d="M263.032031203032 65 Q 256.365364536366 65 , 256.365364536366 71.6666666666667 L  256.365364536366 78.3333333333333  Q 256.365364536366 85 , 263.032031203032 85   L 354.647318833585 85  Q 361.313985500252 85 , 361.313985500252 78.3333333333333  L 361.313985500252 71.6666666666667 Q 361.313985500252 65 ,354.647318833585 65  Z" style="fill: #4f9cf7; stroke: #4f9cf7; stroke-width: 1" />
	<path d="M377.980652166919 65 Q 371.313985500252 65 , 371.313985500252 71.6666666666667 L  371.313985500252 78.3333333333333  Q 371.313985500252 85 , 377.980652166919 85   L 470.987678434795 85  Q 477.654345101461 85 , 477.654345101461 78.3333333333333  L 477.654345101461 71.6666666666667 Q 477.654345101461 65 ,470.987678434795 65  Z" style="fill: #4f9cf7; stroke: #4f9cf7; stroke-width: 1" />
	<path d="M494.321011768128 65 Q 487.654345101461 65 , 487.654345101461 71.6666666666667 L  487.654345101461 78.3333333333333  Q 487.654345101461 85 , 494.321011768128 85   L 584.667252575911 85  Q 591.333919242578 85 , 591.333919242578 78.3333333333333  L 591.333919242578 71.6666666666667 Q 591.333919242578 65 ,584.667252575911 65  Z" style="fill: #4f9cf7; stroke: #4f9cf7; stroke-width: 1" />
	<path d="M608.000585909244 65 Q 601.333919242578 65 , 601.333919242578 71.6666666666667 L  601.333919242578 78.3333333333333  Q 601.333919242578 85 , 608.000585909244 85   L 682.155759196134 85  Q 688.822425862801 85 , 688.822425862801 78.3333333333333  L 688.822425862801 71.6666666666667 Q 688.822425862801 65 ,682.155759196134 65  Z" style="fill: #4f9cf7; stroke: #4f9cf7; stroke-width: 1" />
	<path d="M705.489092529467 65 Q 698.822425862801 65 , 698.822425862801 71.6666666666667 L  698.822425862801 78.3333333333333  Q 698.822425862801 85 , 705.489092529467 85   L 783.412522093802 85  Q 790.079188760468 85 , 790.079188760468 78.3333333333333  L 790.079188760468 71.6666666666667 Q 790.079188760468 65 ,783.412522093802 65  Z" style="fill: #4f9cf7; stroke: #4f9cf7; stroke-width: 1" />
	<path d="M806.745855427135 65 Q 800.079188760468 65 , 800.079188760468 71.6666666666667 L  800.079188760468 78.3333333333333  Q 800.079188760468 85 , 806.745855427135 85   L 880.139368746179 85  Q 886.806035412846 85 , 886.806035412846 78.3333333333333  L 886.806035412846 71.6666666666667 Q 886.806035412846 65 ,880.139368746179 65  Z" style="fill: #4f9cf7; stroke: #4f9cf7; stroke-width: 1" />
	<path d="M903.472702079512 65 Q 896.806035412846 65 , 896.806035412846 71.6666666666667 L  896.806035412846 78.3333333333333  Q 896.806035412846 85 , 903.472702079512 85   L 973.202372591645 85  Q 979.869039258312 85 , 979.869039258312 78.3333333333333  L 979.869039258312 71.6666666666667 Q 979.869039258312 65 ,973.202372591645 65  Z" style="fill: #4f9cf7; stroke: #4f9cf7; stroke-width: 1" />
	<path d="M996.535705924979 65 Q 989.869039258312 65 , 989.869039258312 71.6666666666667 L  989.869039258312 78.3333333333333  Q 989.869039258312 85 , 996.535705924979 85   L 1050.40710385595 85  Q 1057.07377052261 85 , 1057.07377052261 78.3333333333333  L 1057.07377052261 71.6666666666667 Q 1057.07377052261 65 ,1050.40710385595 65  Z" style="fill: #4f9cf7; stroke: #4f9cf7; stroke-width: 1" />
	<path d="M1073.74043718928 65 Q 1067.07377052261 65 , 1067.07377052261 71.6666666666667 L  1067.07377052261 78.3333333333333  Q 1067.07377052261 85 , 1073.74043718928 85   L 1128.18003492227 85  Q 1134.84670158893 85 , 1134.84670158893 78.3333333333333  L 1134.84670158893 71.6666666666667 Q 1134.84670158893 65 ,1128.18003492227 65  Z" style="fill: #4f9cf7; stroke: #4f9cf7; stroke-width: 1" />
	<path d="M1151.5133682556 65 Q 1144.84670158893 65 , 1144.84670158893 71.6666666666667 L  1144.84670158893 78.3333333333333  Q 1144.84670158893 85 , 1151.5133682556 85   L 1222.93123468148 85  Q 1229.59790134815 85 , 1229.59790134815 78.3333333333333  L 1229.59790134815 71.6666666666667 Q 1229.59790134815 65 ,1222.93123468148 65  Z" style="fill: #4f9cf7; stroke: #4f9cf7; stroke-width: 1" />
	<path d="M1246.26456801481 65 Q 1239.59790134815 65 , 1239.59790134815 71.6666666666667 L  1239.59790134815 78.3333333333333  Q 1239.59790134815 85 , 1246.26456801481 85   L 1313.33333333333 85  Q 1320 85 , 1320 78.3333333333333  L 1320 71.6666666666667 Q 1320 65 ,1313.33333333333 65  Z" style="fill: #4f9cf7; stroke: #4f9cf7; stroke-width: 1" />
	<path d="M126.666666666667 265 Q 120 265 , 120 271.666666666667 L  120 278.333333333333  Q 120 285 , 126.666666666667 285   L 240.131969438893 285  Q 246.79863610556 285 , 246.79863610556 278.333333333333  L 246.79863610556 271.666666666667 Q 246.79863610556 265 ,240.131969438893 265  Z" style="fill: #2ecc71; stroke: #2ecc71; stroke-width: 1" />
	<path d="M263.465302772226 265 Q 256.79863610556 265 , 256.79863610556 271.666666666667 L  256.79863610556 278.333333333333  Q 256.79863610556 285 , 263.465302772226 285   L 354.75186884538 285  Q 361.418535512046 285 , 361.418535512046 278.333333333333  L 361.418535512046 271.666666666667 Q 361.418535512046 265 ,354.75186884538 265  Z" style="fill: #2ecc71; stroke: #2ecc71; stroke-width: 1" />
	<path d="M378.085202178713 265 Q 371.418535512046 265 , 371.418535512046 271.666666666667 L  371.418535512046 278.333333333333  Q 371.418535512046 285 , 378.085202178713 285   L 472.427870553713 285  Q 479.094537220379 285 , 479.094537220379 278.333333333333  L 479.094537220379 271.666666666667 Q 479.094537220379 265 ,472.427870553713 265  Z" style="fill: #2ecc71; stroke: #2ecc71; stroke-width: 1" />
	<path d="M495.761203887046 265 Q 489.094537220379 265 , 489.094537220379 271.666666666667 L  489.094537220379 278.333333333333  Q 489.094537220379 285 , 495.761203887046 285   L 583.986888624422 285  Q 590.653555291088 285 , 590.653555291088 278.333333333333  L 590.653555291088 271.666666666667 Q 590.653555291088 265 ,583.986888624422 265  Z" style="fill: #2ecc71; stroke: #2ecc71; stroke-width: 1" />
	<path d="M607.320221957755 265 Q 600.653555291088 265 , 600.653555291088 271.666666666667 L  600.653555291088 278.333333333333  Q 600.653555291088 285 , 607.320221957755 285   L 681.160367886005 285  Q 687.827034552672 285 , 687.827034552672 278.333333333333  L 687.827034552672 271.666666666667 Q 687.827034552672 265 ,681.160367886005 265  Z" style="fill: #2ecc71; stroke: #2ecc71; stroke-width: 1" />
	<path d="M704.493701219338 265 Q 697.827034552672 265 , 697.827034552672 271.666666666667 L  697.827034552672 278.333333333333  Q 697.827034552672 285 , 704.493701219338 285   L 783.768452597542 285  Q 790.435119264209 285 , 790.435119264209 278.333333333333  L 790.435119264209 271.666666666667 Q 790.435119264209 265 ,783.768452597542 265  Z" style="fill: #2ecc71; stroke: #2ecc71; stroke-width: 1" />
	<path d="M807.101785930875 265 Q 800.435119264209 265 , 800.435119264209 271.666666666667 L  800.435119264209 278.333333333333  Q 800.435119264209 285 , 807.101785930875 285   L 879.291944295436 285  Q 885.958610962103 285 , 885.958610962103 278.333333333333  L 885.958610962103 271.666666666667 Q 885.958610962103 265 ,879.291944295436 265  Z" style="fill: #2ecc71; stroke: #2ecc71; stroke-width: 1" />
	<path d="M902.62527762877 265 Q 895.958610962103 265 , 895.958610962103 271.666666666667 L  895.958610962103 278.333333333333  Q 895.958610962103 285 , 902.62527762877 285   L 971.706393131144 285  Q 978.373059797811 285 , 978.373059797811 278.333333333333  L 978.373059797811 271.666666666667 Q 978.373059797811 265 ,971.706393131144 265  Z" style="fill: #2ecc71; stroke: #2ecc71; stroke-width: 1" />
	<path d="M995.039726464477 265 Q 988.373059797811 265 , 988.373059797811 271.666666666667 L  988.373059797811 278.333333333333  Q 988.373059797811 285 , 995.039726464477 285   L 1048.3015668794 285  Q 1054.96823354607 285 , 1054.96823354607 278.333333333333  L 1054.96823354607 271.666666666667 Q 1054.96823354607 265 ,1048.3015668794 265  Z" style="fill: #2ecc71; stroke: #2ecc71; stroke-width: 1" />
	<path d="M1071.63490021274 265 Q 1064.96823354607 265 , 1064.96823354607 271.666666666667 L  1064.96823354607 278.333333333333  Q 1064.96823354607 285 , 1071.63490021274 285   L 1126.48529382617 285  Q 1133.15196049284 285 , 1133.15196049284 278.333333333333  L 1133.15196049284 271.666666666667 Q 1133.15196049284 265 ,1126.48529382617 265  Z" style="fill: #2ecc71; stroke: #2ecc71; stroke-width: 1" />
	<path d="M1149.8186271595 265 Q 1143.15196049284 265 , 1143.15196049284 271.666666666667 L  1143.15196049284 278.333333333333  Q 1143.15196049284 285 , 1149.8186271595 285   L 1221.65520081097 285  Q 1228.32186747764 285 , 1228.32186747764 278.333333333333  L 1228.32186747764 271.666666666667 Q 1228.32186747764 265 ,1221.65520081097 265  Z" style="fill: #2ecc71; stroke: #2ecc71; stroke-width: 1" />
	<path d="M1244.9885341443 265 Q 1238.32186747764 265 , 1238.32186747764 271.666666666667 L  1238.32186747764 278.333333333333  Q 1238.32186747764 285 , 1244.9885341443 285   L 1313.33333333333 285  Q 1320 285 , 1320 278.333333333333  L 1320 271.666666666667 Q 1320 265 ,1313.33333333333 265  Z" style="fill: #2ecc71; stroke: #2ecc71; stroke-width: 1" />
	<!-- 
	Generated using the Perl SVG Module V2.78
	by Ronan Oger
	Info: http://www.roitsystems.com/
 -->
</svg>